<?xml version="1.0" encoding="utf-8"?>
<!-- Generator: Adobe Illustrator 17.0.0, SVG Export Plug-In . SVG Version: 6.00 Build 0)  -->
<!DOCTYPE svg PUBLIC "-//W3C//DTD SVG 1.1//EN" "http://www.w3.org/Graphics/SVG/1.1/DTD/svg11.dtd">
<svg version="1.1" id="GLYPHICONS.com" xmlns="http://www.w3.org/2000/svg" xmlns:xlink="http://www.w3.org/1999/xlink" x="0px"
	 y="0px" width="136px" height="20px" viewBox="0 0 136 20" enable-background="new 0 0 136 20" xml:space="preserve">
<g>
	<g>
		<g>
			<path fill="#FFFFFF" d="M106,17.9c0,0.6-0.5,1.1-1.1,1.1H90.1c-0.6,0-1.1-0.5-1.1-1.1V3.1C89,2.5,89.5,2,90.1,2h14.7
				c0.6,0,1.1,0.5,1.1,1.1V17.9z"/>
		</g>
		<g>
			<path fill="#BC2328" d="M106,16.9c0,0.6-0.5,1.1-1.1,1.1H90.1c-0.6,0-1.1-0.5-1.1-1.1V2.1C89,1.5,89.5,1,90.1,1h14.7
				c0.6,0,1.1,0.5,1.1,1.1V16.9z"/>
		</g>
	</g>
	<path fill="#FFFFFF" d="M102.7,8H99V4.4C99,4.1,99,4,98.7,4h-2.3C96.1,4,96,4.1,96,4.4V8h-3.7C92,8,92,8.1,92,8.5v2.2
		c0,0.3,0,0.4,0.3,0.4H96v3.6c0,0.3,0.1,0.4,0.4,0.4h2.3c0.3,0,0.3-0.1,0.3-0.4V11h3.7c0.3,0,0.3-0.1,0.3-0.4V8.5
		C103,8.1,103,8,102.7,8z"/>
</g>
<g>
	<g>
		<path fill="#FFFFFF" d="M12.3,16.7c-1.2,1.6-2.9,2.2-4.4,2.2c-5,0-7.9-3.7-7.9-8.4c0-4.8,2.9-8.5,7.9-8.5c3.3,0,6.4,2,6.8,5.7
			h-3.4C10.9,6,9.6,5,7.9,5c-3.2,0-4.4,2.7-4.4,5.5c0,2.7,1.2,5.4,4.4,5.4c2.3,0,3.6-1.2,3.8-3.5H8.2V9.8H15v8.7h-2.3L12.3,16.7z
			 M16.7,2.4h3.5v13.1h7.9v3H16.7V2.4z M29.7,12.3l-5.9-9.8h4l3.8,6.4l3.7-6.4h3.9l-6,9.9v6.2h-3.5V12.3z M39.5,2.4h7.3
			c4,0,5.6,2.5,5.6,5.2s-1.6,5.2-5.6,5.2H43v5.8h-3.5V2.4z M43,10h2.8c1.6,0,3.1-0.4,3.1-2.4c0-2.1-1.5-2.4-3.1-2.4H43V10z
			 M53.4,2.4H57v6.2h6.5V2.4H67v16.1h-3.5v-6.9H57v6.9h-3.5V2.4z M69,2.4h3.5v16.1H69V2.4z M85.3,7.9C85.1,6.3,83.5,5,81.8,5
			c-3.2,0-4.4,2.7-4.4,5.5c0,2.7,1.2,5.4,4.4,5.4c2.2,0,3.4-1.5,3.7-3.6h3.4c-0.4,4-3.1,6.6-7.1,6.6c-5,0-7.9-3.7-7.9-8.4
			c0-4.8,2.9-8.5,7.9-8.5c3.5,0,6.5,2.1,7,5.8H85.3z M107.3,2.5h3.5l6.7,10.8h0V2.5h3.3v16.1h-3.5l-6.7-10.8h0v10.8h-3.3V2.5z
			 M125.3,13.2c0,2.1,1.7,3,3.6,3c1.2,0,3.1-0.4,3.1-2c0-1.7-2.4-2-4.8-2.7c-2.4-0.6-4.8-1.6-4.8-4.6c0-3.3,3.1-4.9,6-4.9
			c3.4,0,6.5,1.5,6.5,5.2h-3.4c-0.1-1.9-1.5-2.4-3.2-2.4c-1.1,0-2.4,0.5-2.4,1.8c0,1.2,0.8,1.4,4.8,2.4c1.2,0.3,4.8,1,4.8,4.7
			c0,3-2.3,5.2-6.7,5.2c-3.6,0-6.9-1.8-6.9-5.7H125.3z"/>
	</g>
	<g>
		<path fill="#191919" d="M12.3,15.7c-1.2,1.6-2.9,2.2-4.4,2.2c-5,0-7.9-3.7-7.9-8.4c0-4.8,2.9-8.5,7.9-8.5c3.3,0,6.4,2,6.8,5.7
			h-3.4C10.9,5,9.6,4,7.9,4C4.7,4,3.5,6.8,3.5,9.6c0,2.7,1.2,5.4,4.4,5.4c2.3,0,3.6-1.2,3.8-3.5H8.2V8.8H15v8.7h-2.3L12.3,15.7z
			 M16.7,1.4h3.5v13.1h7.9v3H16.7V1.4z M29.7,11.3l-5.9-9.8h4l3.8,6.4l3.7-6.4h3.9l-6,9.9v6.2h-3.5V11.3z M39.5,1.4h7.3
			c4,0,5.6,2.5,5.6,5.2s-1.6,5.2-5.6,5.2H43v5.8h-3.5V1.4z M43,9h2.8c1.6,0,3.1-0.4,3.1-2.4c0-2.1-1.5-2.4-3.1-2.4H43V9z M53.4,1.4
			H57v6.2h6.5V1.4H67v16.1h-3.5v-6.9H57v6.9h-3.5V1.4z M69,1.4h3.5v16.1H69V1.4z M85.3,6.9C85.1,5.3,83.5,4,81.8,4
			c-3.2,0-4.4,2.7-4.4,5.5c0,2.7,1.2,5.4,4.4,5.4c2.2,0,3.4-1.5,3.7-3.6h3.4c-0.4,4-3.1,6.6-7.1,6.6c-5,0-7.9-3.7-7.9-8.4
			c0-4.8,2.9-8.5,7.9-8.5c3.5,0,6.5,2.1,7,5.8H85.3z M107.3,1.5h3.5l6.7,10.8h0V1.5h3.3v16.1h-3.5l-6.7-10.8h0v10.8h-3.3V1.5z
			 M125.3,12.2c0,2.1,1.7,3,3.6,3c1.2,0,3.1-0.4,3.1-2c0-1.7-2.4-2-4.8-2.7c-2.4-0.6-4.8-1.6-4.8-4.6c0-3.3,3.1-4.9,6-4.9
			c3.4,0,6.5,1.5,6.5,5.2h-3.4c-0.1-1.9-1.5-2.4-3.2-2.4c-1.1,0-2.4,0.5-2.4,1.8c0,1.2,0.8,1.4,4.8,2.4c1.2,0.3,4.8,1,4.8,4.7
			c0,3-2.3,5.2-6.7,5.2c-3.6,0-6.9-1.8-6.9-5.7H125.3z"/>
	</g>
</g>
<g>
</g>
<g>
</g>
<g>
</g>
<g>
</g>
<g>
</g>
<g>
</g>
<g>
</g>
<g>
</g>
<g>
</g>
<g>
</g>
<g>
</g>
<g>
</g>
<g>
</g>
<g>
</g>
<g>
</g>
<g>
</g>
<g>
</g>
<g>
</g>
<g>
</g>
<g>
</g>
</svg>
